<svg width="40" height="40" viewBox="0 0 40 40" fill="none" xmlns="http://www.w3.org/2000/svg">
<rect width="40" height="40" rx="20" fill="#1E1E1E"/>
<path d="M29.58 15.1916C29.35 14.331 28.67 13.6505 27.81 13.4203C26.25 13 20 13 20 13C20 13 13.75 13 12.19 13.4203C11.33 13.6505 10.65 14.331 10.42 15.1916C10 16.7527 10 20.015 10 20.015C10 20.015 10 23.2773 10.42 24.8385C10.65 25.6991 11.33 26.3495 12.19 26.5797C13.75 27 20 27 20 27C20 27 26.25 27 27.81 26.5797C28.67 26.3495 29.35 25.6991 29.58 24.8385C30 23.2773 30 20.015 30 20.015C30 20.015 30 16.7527 29.58 15.1916ZM18 23.0071V17.0029L23 20.005L18 23.0071Z" fill="white"/>
</svg>
