<svg width="36" height="36" viewBox="0 0 36 36" fill="none" xmlns="http://www.w3.org/2000/svg">
<rect width="36" height="36" rx="18" fill="#E1E1E1"/>
<path d="M30 14.8691C30 11.9559 27.6467 9.60254 24.7335 9.60254H11.2665C8.35334 9.60254 6 11.9559 6 14.8691V21.1308C6 24.044 8.35334 26.3974 11.2665 26.3974H24.7335C27.6467 26.3974 30 24.044 30 21.1308V14.8691ZM22.0795 18.4665L16.0458 21.4522C15.8073 21.5766 15.0091 21.4107 15.0091 21.1412V15.0038C15.0091 14.7343 15.8177 14.558 16.0562 14.6928L21.841 17.8341C22.0795 17.9688 22.3387 18.3213 22.0898 18.4561L22.0795 18.4665Z" fill="#1E1E1E"/>
</svg>
