<svg width="40" height="40" viewBox="0 0 40 40" fill="none" xmlns="http://www.w3.org/2000/svg">
<rect width="40" height="40" rx="20" fill="#1E1E1E"/>
<path d="M20 15.5C19.11 15.5 18.24 15.7639 17.4999 16.2584C16.7599 16.7529 16.1831 17.4557 15.8425 18.2779C15.5019 19.1002 15.4128 20.005 15.5865 20.8779C15.7601 21.7508 16.1887 22.5526 16.818 23.182C17.4474 23.8113 18.2492 24.2399 19.1221 24.4135C19.995 24.5872 20.8998 24.4981 21.7221 24.1575C22.5443 23.8169 23.2471 23.2401 23.7416 22.5001C24.2361 21.76 24.5 20.89 24.5 20C24.5 18.8065 24.0259 17.6619 23.182 16.818C22.3381 15.9741 21.1935 15.5 20 15.5ZM20 22.7C19.466 22.7 18.944 22.5416 18.5 22.245C18.0559 21.9483 17.7099 21.5266 17.5055 21.0332C17.3012 20.5399 17.2477 19.997 17.3519 19.4733C17.4561 18.9495 17.7132 18.4684 18.0908 18.0908C18.4684 17.7132 18.9495 17.4561 19.4733 17.3519C19.997 17.2477 20.5399 17.3012 21.0332 17.5055C21.5266 17.7099 21.9483 18.0559 22.245 18.5C22.5416 18.944 22.7 19.466 22.7 20C22.7 20.7161 22.4155 21.4028 21.9092 21.9092C21.4028 22.4155 20.7161 22.7 20 22.7ZM24.5 14.6C24.322 14.6 24.148 14.6528 24 14.7517C23.852 14.8506 23.7366 14.9911 23.6685 15.1556C23.6004 15.32 23.5826 15.501 23.6173 15.6756C23.652 15.8502 23.7377 16.0105 23.8636 16.1364C23.9895 16.2623 24.1498 16.348 24.3244 16.3827C24.499 16.4174 24.68 16.3996 24.8444 16.3315C25.0089 16.2634 25.1494 16.148 25.2483 16C25.3472 15.852 25.4 15.678 25.4 15.5C25.4 15.2613 25.3052 15.0324 25.1364 14.8636C24.9676 14.6948 24.7387 14.6 24.5 14.6ZM28.946 16.616C28.9311 15.8469 28.785 15.086 28.514 14.366C28.2627 13.7109 27.8764 13.1159 27.3803 12.6197C26.8841 12.1236 26.2891 11.7373 25.634 11.486C24.914 11.215 24.1531 11.0689 23.384 11.054C22.511 11 22.223 11 20 11C17.777 11 17.489 11 16.616 11.054C15.8469 11.0689 15.086 11.215 14.366 11.486C13.7109 11.7373 13.1159 12.1236 12.6197 12.6197C12.1236 13.1159 11.7373 13.7109 11.486 14.366C11.215 15.086 11.0689 15.8469 11.054 16.616C11 17.498 11 17.786 11 20C11 22.214 11 22.502 11.054 23.384C11.0689 24.1531 11.215 24.914 11.486 25.634C11.7373 26.2891 12.1236 26.8841 12.6197 27.3803C13.1159 27.8764 13.7109 28.2627 14.366 28.514C15.086 28.785 15.8469 28.9311 16.616 28.946C17.516 28.946 17.777 29 20 29C22.223 29 22.511 29 23.384 28.946C24.1531 28.9311 24.914 28.785 25.634 28.514C26.2891 28.2627 26.8841 27.8764 27.3803 27.3803C27.8764 26.8841 28.2627 26.2891 28.514 25.634C28.785 24.914 28.9311 24.1531 28.946 23.384C28.946 22.484 29 22.214 29 20C29 17.786 29 17.498 28.946 16.616ZM27.146 23.303C27.1302 23.8742 27.0239 24.4392 26.831 24.977C26.6715 25.4021 26.4194 25.7864 26.093 26.102C25.7793 26.4286 25.3942 26.6781 24.968 26.831C24.4289 27.0318 23.8601 27.1413 23.285 27.155C22.439 27.155 22.178 27.2 19.991 27.2C17.804 27.2 17.552 27.2 16.706 27.2C16.1318 27.1852 15.5637 27.0788 15.023 26.885C14.5979 26.7255 14.2136 26.4734 13.898 26.147C13.5714 25.8333 13.3219 25.4482 13.169 25.022C12.969 24.4858 12.8595 23.9201 12.845 23.348C12.845 22.448 12.845 22.223 12.845 20.045C12.845 17.867 12.845 17.606 12.845 16.742C12.8605 16.1671 12.97 15.5986 13.169 15.059C13.3243 14.6366 13.5736 14.255 13.898 13.943C14.2117 13.6164 14.5968 13.3669 15.023 13.214C15.5621 13.0132 16.1309 12.9037 16.706 12.89C17.552 12.8 17.813 12.8 20 12.8C22.187 12.8 22.448 12.8 23.294 12.8C23.8719 12.8147 24.4435 12.9242 24.986 13.124C25.4084 13.2793 25.79 13.5286 26.102 13.853C26.4286 14.1667 26.6781 14.5518 26.831 14.978C27.0513 15.5257 27.1761 16.1071 27.2 16.697C27.2 17.597 27.245 17.822 27.245 20C27.245 22.178 27.2 22.439 27.2 23.303H27.146Z" fill="white"/>
</svg>
