<svg width="36" height="36" viewBox="0 0 36 36" fill="none" xmlns="http://www.w3.org/2000/svg">
<rect width="36" height="36" rx="18" fill="#E1E1E1"/>
<path d="M23.2985 11.5746C22.6493 11.5746 22.1269 12.097 22.1269 12.7463C22.1269 13.3955 22.6493 13.9179 23.2985 13.9179C23.9478 13.9179 24.4702 13.3955 24.4702 12.7463C24.4702 12.097 23.9478 11.5746 23.2985 11.5746Z" fill="#1E1E1E"/>
<path d="M18.0821 13.0746C15.3657 13.0746 13.1567 15.2836 13.1567 18C13.1567 20.7164 15.3657 22.9254 18.0821 22.9254C20.7985 22.9254 23.0075 20.7164 23.0075 18C23.0075 15.2836 20.7985 13.0746 18.0821 13.0746ZM18.0821 21.1567C16.3433 21.1567 14.9254 19.7388 14.9254 18C14.9254 16.2612 16.3433 14.8433 18.0821 14.8433C19.8209 14.8433 21.2388 16.2612 21.2388 18C21.2388 19.7388 19.8209 21.1567 18.0821 21.1567Z" fill="#1E1E1E"/>
<path d="M21.9925 28H14.0075C10.694 28 8 25.306 8 21.9925V14.0075C8 10.694 10.694 8 14.0075 8H21.9925C25.306 8 28 10.694 28 14.0075V21.9925C28 25.306 25.306 28 21.9925 28ZM14.0075 9.8806C11.7313 9.8806 9.8806 11.7313 9.8806 14.0075V21.9925C9.8806 24.2687 11.7313 26.1194 14.0075 26.1194H21.9925C24.2687 26.1194 26.1194 24.2687 26.1194 21.9925V14.0075C26.1194 11.7313 24.2687 9.8806 21.9925 9.8806H14.0075Z" fill="#1E1E1E"/>
</svg>
