<svg width="2289" height="442" viewBox="0 0 2289 442" fill="none" xmlns="http://www.w3.org/2000/svg">
<g filter="url(#filter0_d_44_6)">
<path d="M1087.5 154.626L1071 197.126C1064.5 214.959 1064.8 239.926 1118 197.126C1118.65 196.6 1119.3 196.074 1119.94 195.549M1119.94 195.549C1184.4 142.647 1179.45 93.5468 1174.5 85.6257C1168.93 76.7117 1154 81.1257 1141.5 123.126C1131.5 156.726 1125 177.459 1123 183.626C1121.95 186.95 1120.83 191.133 1119.94 195.549ZM1119.94 195.549C1117.31 208.621 1116.73 223.729 1126 224.626C1141.5 226.126 1161 201.126 1172.5 181.126M1172.5 181.126C1184 161.126 1192 157.126 1202.5 154.626C1211.26 152.541 1234 161.126 1228 189.126C1223.2 211.526 1206.67 220.126 1199 221.626C1186 224.292 1162.5 219.926 1172.5 181.126ZM39 350.117C51 353.617 478.5 467.125 713.5 348.625C820.958 294.439 889.701 235.437 931.12 190.688M931.12 190.688C962.164 157.147 977.859 131.614 983 122.117C988.833 110.451 997 85.9175 983 81.1175C967.46 75.7895 948.766 113.83 931.12 190.688ZM931.12 190.688C928.894 200.383 926.684 210.696 924.5 221.617C927.333 208.117 940.6 178.017 955 165.617C973 150.117 996 152.617 988 176.617C980 200.617 969 218.617 978.5 221.617C988 224.617 998.5 219.617 1021.5 185.617C1044.5 151.617 1063.5 147.125 1084.5 156.625M1018 190.125C1015 197.459 1014.88 211.225 1022.08 217.625C1031.08 225.625 1048.58 222.625 1084.08 159.625M1229 187.625C1227.33 197.959 1230.35 228.907 1252.5 222.625C1286 213.125 1298 130.959 1306.5 83.1255M1306.43 82.8896C1297.44 110.345 1287.5 166.125 1306 215.125C1334.05 289.424 1526.21 389.387 1766.98 228.151C1959.59 99.1629 2194 -25.8745 2250 76.8995" stroke="#E00842" stroke-width="6" stroke-linecap="round" shape-rendering="crispEdges"/>
</g>
<defs>
<filter id="filter0_d_44_6" x="-0.000976562" y="3.05176e-05" width="2289" height="441.479" filterUnits="userSpaceOnUse" color-interpolation-filters="sRGB">
<feFlood flood-opacity="0" result="BackgroundImageFix"/>
<feColorMatrix in="SourceAlpha" type="matrix" values="0 0 0 0 0 0 0 0 0 0 0 0 0 0 0 0 0 0 127 0" result="hardAlpha"/>
<feOffset/>
<feGaussianBlur stdDeviation="18"/>
<feComposite in2="hardAlpha" operator="out"/>
<feColorMatrix type="matrix" values="0 0 0 0 0.878431 0 0 0 0 0.0313726 0 0 0 0 0.258824 0 0 0 0.36 0"/>
<feBlend mode="normal" in2="BackgroundImageFix" result="effect1_dropShadow_44_6"/>
<feBlend mode="normal" in="SourceGraphic" in2="effect1_dropShadow_44_6" result="shape"/>
</filter>
</defs>
</svg>
