<svg width="430" height="150" viewBox="0 0 430 150" fill="none" xmlns="http://www.w3.org/2000/svg">
<path d="M6.25244 149.448C4.42844 149.448 3.08444 148.872 2.22044 147.72C1.35644 146.664 0.924436 145.464 0.924436 144.12C0.924436 142.68 1.35644 141.432 2.22044 140.376C3.08444 139.224 4.42844 138.648 6.25244 138.648C8.36444 138.648 10.8124 137.736 13.5964 135.912C16.2844 133.992 19.5484 130.968 23.3884 126.84C27.2284 122.616 31.7884 117.096 37.0684 110.28C42.3484 103.464 48.5884 95.112 55.7884 85.224C56.9404 83.688 58.1404 83.064 59.3884 83.352C60.7324 83.64 61.6444 84.456 62.1244 85.8C62.7004 87.144 62.4124 88.632 61.2604 90.264C53.3884 101.784 46.5244 111.384 40.6684 119.064C34.9084 126.648 29.9644 132.696 25.8364 137.208C21.6124 141.624 17.9644 144.792 14.8924 146.712C11.7244 148.536 8.84444 149.448 6.25244 149.448ZM102.444 149.448C98.2204 149.448 95.0524 148.632 92.9404 147C90.9244 145.464 89.6764 143.496 89.1964 141.096C88.7164 138.6 88.7164 136.008 89.1964 133.32C89.6764 130.536 90.3004 127.992 91.0684 125.688L100.86 97.464C101.724 94.968 102.252 92.712 102.444 90.696C102.732 88.584 102.396 86.904 101.436 85.656C100.572 84.408 98.7964 83.784 96.1084 83.784C92.8444 83.784 89.1964 85.224 85.1644 88.104C81.2284 90.984 77.1484 95.016 72.9244 100.2C68.7004 105.384 64.5244 111.528 60.3964 118.632C56.3644 125.64 52.6204 133.368 49.1644 141.816L48.4444 128.856C52.0924 119.928 55.9804 112.008 60.1084 105.096C64.2364 98.088 68.5564 92.136 73.0684 87.24C77.5804 82.344 82.1404 78.648 86.7484 76.152C91.4524 73.56 96.1564 72.264 100.86 72.264C105.276 72.264 108.684 73.368 111.084 75.576C113.58 77.688 114.924 80.856 115.116 85.08C115.404 89.304 114.492 94.536 112.38 100.776L103.884 125.544C102.156 130.536 101.34 133.992 101.436 135.912C101.628 137.736 102.876 138.648 105.18 138.648C106.524 138.648 107.484 139.224 108.06 140.376C108.732 141.432 108.972 142.68 108.78 144.12C108.684 145.464 108.108 146.664 107.052 147.72C105.996 148.872 104.46 149.448 102.444 149.448ZM41.2444 149.16C39.7084 149.16 38.2684 148.824 36.9244 148.152C35.5804 147.48 35.1964 146.232 35.7724 144.408L72.3484 32.376C75.9004 21.144 79.8364 12.984 84.1564 7.896C88.5724 2.80799 93.8524 0.263992 99.9964 0.263992C103.164 0.263992 105.852 0.983992 108.06 2.42399C110.364 3.86399 112.14 5.87999 113.388 8.47199C114.732 10.968 115.404 13.848 115.404 17.112C115.404 19.704 115.02 22.488 114.252 25.464C113.484 28.344 112.38 31.416 110.94 34.68C109.596 37.848 107.868 41.208 105.756 44.76C103.74 48.216 101.34 51.768 98.5564 55.416C95.8684 58.968 92.8924 62.616 89.6284 66.36C86.3644 70.008 82.7644 73.752 78.8284 77.592C74.9884 81.336 70.8604 85.128 66.4444 88.968L48.0124 145.416C47.6284 146.664 46.9564 147.576 45.9964 148.152C45.0364 148.824 43.4524 149.16 41.2444 149.16ZM71.7724 72.696C74.8444 69.528 77.7244 66.312 80.4124 63.048C83.1964 59.784 85.7404 56.52 88.0444 53.256C90.4444 49.992 92.6044 46.824 94.5244 43.752C96.4444 40.584 98.0284 37.512 99.2764 34.536C100.62 31.56 101.628 28.728 102.3 26.04C103.068 23.256 103.452 20.664 103.452 18.264C103.452 16.92 103.26 15.768 102.876 14.808C102.492 13.848 101.916 13.128 101.148 12.648C100.38 12.072 99.4204 11.784 98.2684 11.784C96.7324 11.784 95.2444 12.456 93.8044 13.8C92.3644 15.048 90.8764 17.4 89.3404 20.856C87.8044 24.312 85.9804 29.256 83.8684 35.688L71.7724 72.696ZM102.413 149.448C101.069 149.448 100.061 148.872 99.3889 147.72C98.7169 146.664 98.4769 145.464 98.6689 144.12C98.7649 142.68 99.3409 141.432 100.397 140.376C101.453 139.224 102.989 138.648 105.005 138.648C107.501 138.648 110.141 137.736 112.925 135.912C115.709 134.088 118.589 131.544 121.565 128.28C124.445 125.016 127.421 121.176 130.493 116.76C133.565 112.344 136.685 107.544 139.853 102.36C140.621 101.112 141.677 100.584 143.021 100.776C144.365 100.968 145.469 101.592 146.333 102.648C147.197 103.608 147.245 104.712 146.477 105.96C142.349 113.16 138.413 119.496 134.669 124.968C131.021 130.44 127.469 135 124.013 138.648C120.461 142.2 116.957 144.888 113.501 146.712C109.949 148.536 106.253 149.448 102.413 149.448ZM149.501 149.448C146.237 149.448 143.405 148.584 141.005 146.856C138.605 145.128 136.733 142.68 135.389 139.512C134.045 136.344 133.373 132.6 133.373 128.28C133.373 123.864 134.045 119.112 135.389 114.024C136.733 108.936 138.749 103.944 141.437 99.048C144.125 94.152 147.389 89.688 151.229 85.656C155.069 81.624 159.485 78.408 164.477 76.008C169.565 73.512 175.133 72.264 181.181 72.264C184.829 72.264 188.765 72.936 192.989 74.28C197.213 75.528 201.005 77.304 204.365 79.608L201.773 89.544C197.069 87.048 192.893 85.464 189.245 84.792C185.597 84.024 182.237 83.64 179.165 83.64C175.037 83.64 171.245 84.6 167.789 86.52C164.429 88.44 161.405 90.984 158.717 94.152C156.125 97.224 153.917 100.68 152.093 104.52C150.269 108.264 148.877 112.008 147.917 115.752C146.957 119.496 146.477 122.904 146.477 125.976C146.477 128.376 146.765 130.488 147.341 132.312C147.917 134.136 148.733 135.528 149.789 136.488C150.941 137.448 152.237 137.928 153.677 137.928C157.229 137.928 161.261 136.008 165.773 132.168C170.285 128.232 175.085 122.472 180.173 114.888C185.357 107.304 190.637 98.088 196.013 87.24L201.341 92.568C195.101 105.432 188.909 116.088 182.765 124.536C176.717 132.888 170.909 139.128 165.341 143.256C159.773 147.384 154.493 149.448 149.501 149.448ZM193.853 149.448C189.533 149.448 186.317 148.632 184.205 147C182.189 145.464 180.893 143.496 180.317 141.096C179.837 138.6 179.837 136.008 180.317 133.32C180.797 130.536 181.469 127.992 182.333 125.688L198.461 77.448C199.133 75.528 199.901 74.28 200.765 73.704C201.725 73.128 203.117 72.84 204.941 72.84C207.917 72.84 209.789 73.32 210.557 74.28C211.421 75.144 211.517 76.536 210.845 78.456L195.005 125.544C193.373 130.536 192.605 133.992 192.701 135.912C192.893 137.736 194.093 138.648 196.301 138.648C197.645 138.648 198.653 139.224 199.325 140.376C199.997 141.432 200.237 142.68 200.045 144.12C199.949 145.464 199.373 146.664 198.317 147.72C197.357 148.872 195.869 149.448 193.853 149.448ZM193.819 149.448C191.995 149.448 190.795 148.872 190.219 147.72C189.643 146.664 189.547 145.464 189.931 144.12C190.219 142.68 190.987 141.432 192.235 140.376C193.387 139.224 194.875 138.648 196.699 138.648C199.387 138.648 202.795 137.496 206.923 135.192C211.051 132.888 215.611 129.72 220.603 125.688C225.595 121.56 230.779 116.808 236.155 111.432C241.627 106.056 247.003 100.248 252.283 94.008C257.659 87.672 262.699 81.192 267.403 74.568C272.203 67.944 276.427 61.368 280.075 54.84C283.723 48.312 286.603 42.072 288.715 36.12C290.827 30.072 291.883 24.6 291.883 19.704C291.883 17.88 292.459 16.536 293.611 15.672C294.859 14.712 296.299 14.232 297.931 14.232C299.563 14.232 300.955 14.712 302.107 15.672C303.355 16.536 303.979 17.88 303.979 19.704C303.979 24.312 303.019 29.448 301.099 35.112C299.275 40.68 296.683 46.584 293.323 52.824C290.059 59.064 286.219 65.4 281.803 71.832C277.387 78.168 272.587 84.504 267.403 90.84C262.315 97.176 257.035 103.224 251.563 108.984C246.091 114.744 240.619 120.12 235.147 125.112C229.675 130.008 224.395 134.28 219.307 137.928C214.219 141.576 209.515 144.408 205.195 146.424C200.875 148.44 197.083 149.448 193.819 149.448ZM250.411 149.448C245.035 149.448 240.763 147.816 237.595 144.552C234.523 141.192 232.795 136.536 232.411 130.584C232.027 124.536 233.131 117.48 235.723 109.416L261.067 32.376C264.619 21.144 268.555 12.984 272.875 7.896C277.291 2.80799 282.571 0.263992 288.715 0.263992C291.787 0.263992 294.427 1.07999 296.635 2.71199C298.939 4.34399 300.715 6.59999 301.963 9.47999C303.307 12.36 303.979 15.768 303.979 19.704C303.979 21.528 303.355 22.872 302.107 23.736C300.955 24.6 299.563 25.032 297.931 25.032C296.299 25.032 294.859 24.6 293.611 23.736C292.459 22.872 291.883 21.528 291.883 19.704C291.883 18.072 291.739 16.68 291.451 15.528C291.163 14.376 290.683 13.464 290.011 12.792C289.339 12.12 288.331 11.784 286.987 11.784C285.451 11.784 283.963 12.456 282.523 13.8C281.179 15.048 279.739 17.4 278.203 20.856C276.667 24.216 274.795 29.016 272.587 35.256L247.531 111.864C245.611 117.72 244.555 122.664 244.363 126.696C244.267 130.728 244.987 133.752 246.523 135.768C248.059 137.688 250.267 138.648 253.147 138.648C254.491 138.648 255.499 139.224 256.171 140.376C256.843 141.432 257.083 142.68 256.891 144.12C256.699 145.464 256.075 146.664 255.019 147.72C253.963 148.872 252.427 149.448 250.411 149.448ZM250.491 149.448C249.147 149.448 248.139 148.872 247.467 147.72C246.795 146.664 246.555 145.464 246.747 144.12C246.843 142.68 247.419 141.432 248.475 140.376C249.531 139.224 251.067 138.648 253.083 138.648C255.579 138.648 258.219 137.736 261.003 135.912C263.787 134.088 266.667 131.544 269.643 128.28C272.523 125.016 275.499 121.176 278.571 116.76C281.643 112.344 284.763 107.544 287.931 102.36C288.699 101.112 289.755 100.584 291.099 100.776C292.443 100.968 293.547 101.592 294.411 102.648C295.275 103.608 295.323 104.712 294.555 105.96C290.427 113.16 286.491 119.496 282.747 124.968C279.099 130.44 275.547 135 272.091 138.648C268.539 142.2 265.035 144.888 261.579 146.712C258.027 148.536 254.331 149.448 250.491 149.448ZM311.115 149.736C305.163 149.736 300.123 148.536 295.995 146.136C291.867 143.736 288.747 140.424 286.635 136.2C284.619 131.88 283.611 127.032 283.611 121.656C283.611 116.568 284.523 111.192 286.347 105.528C288.171 99.768 290.859 94.392 294.411 89.4C298.059 84.312 302.571 80.184 307.947 77.016C313.419 73.848 319.755 72.264 326.955 72.264C332.907 72.264 337.899 73.416 341.931 75.72C346.059 77.928 349.131 81.096 351.147 85.224C353.259 89.256 354.315 93.96 354.315 99.336C354.315 103.176 353.739 107.4 352.587 112.008C351.531 116.52 349.851 121.032 347.547 125.544C345.339 129.96 342.507 133.992 339.051 137.64C335.595 141.288 331.515 144.216 326.811 146.424C322.203 148.632 316.971 149.736 311.115 149.736ZM312.555 138.216C317.259 138.216 321.387 136.968 324.939 134.472C328.491 131.976 331.467 128.808 333.867 124.968C336.267 121.032 338.091 116.952 339.339 112.728C340.587 108.408 341.211 104.424 341.211 100.776C341.211 97.032 340.587 93.912 339.339 91.416C338.091 88.92 336.315 87.048 334.011 85.8C331.707 84.456 328.971 83.784 325.803 83.784C321.003 83.784 316.779 85.032 313.131 87.528C309.483 89.928 306.411 93.048 303.915 96.888C301.515 100.728 299.691 104.76 298.443 108.984C297.195 113.208 296.571 117.096 296.571 120.648C296.571 124.392 297.195 127.608 298.443 130.296C299.787 132.888 301.659 134.856 304.059 136.2C306.459 137.544 309.291 138.216 312.555 138.216ZM387.663 115.896C383.439 115.896 381.759 114.552 382.623 111.864L415.887 4.72799C416.367 3.38399 417.231 2.42399 418.479 1.848C419.727 1.17599 421.407 0.839985 423.519 0.839985C427.743 0.839985 429.423 2.13599 428.559 4.72799L395.295 111.864C394.815 113.208 393.951 114.216 392.703 114.888C391.455 115.56 389.775 115.896 387.663 115.896ZM378.735 149.016C376.719 149.016 375.039 148.344 373.695 147C372.351 145.752 371.679 143.928 371.679 141.528C371.583 138.936 372.351 136.488 373.983 134.184C375.711 131.88 378.351 130.728 381.903 130.728C383.919 130.728 385.551 131.352 386.799 132.6C388.143 133.848 388.863 135.72 388.959 138.216C389.055 140.808 388.287 143.256 386.655 145.56C385.023 147.864 382.383 149.016 378.735 149.016Z" fill="#1E1E1E"/>
</svg>
